<svg width="167" height="104" viewBox="0 0 167 104" fill="none" xmlns="http://www.w3.org/2000/svg">
<path d="M79.8347 5.50826C82.3557 2.97446 88.2747 2.97446 90.7957 5.50826C92.9086 7.63198 97.5898 8.05115 100.578 6.38415C104.143 4.39528 109.822 5.4338 111.095 8.30723C112.162 10.7157 116.463 11.9392 120.085 10.864C124.405 9.58115 129.385 11.574 129.305 14.5544C129.24 17.0524 132.813 18.9811 136.774 18.5848C141.501 18.1119 145.377 20.8978 143.953 23.7435C142.76 26.1288 145.315 28.6064 149.296 28.9211C154.044 29.2966 156.503 32.6496 153.849 35.1303C151.625 37.2094 152.957 40.0354 156.634 41.0356C161.019 42.2289 161.862 45.8775 158.194 47.792C155.119 49.3968 155.119 52.342 158.194 53.9467C161.862 55.8612 161.019 59.5098 156.634 60.7032C152.957 61.7034 151.625 64.5293 153.849 66.6085C156.503 69.0891 154.044 72.4421 149.296 72.8176C145.315 73.1324 142.76 75.6101 143.953 77.9953C145.377 80.841 141.501 83.6271 136.774 83.1538C132.813 82.7574 129.24 84.6867 129.305 87.1842C129.385 90.1648 124.405 92.1574 120.085 90.8747C116.463 89.7993 112.162 91.0232 111.095 93.4318C109.822 96.3053 104.143 97.3438 100.578 95.3542C97.5898 93.6872 92.9086 94.107 90.7957 96.2307C88.2747 98.7644 82.3557 98.7644 79.8347 96.2307C77.7218 94.107 73.0406 93.6872 70.0524 95.3542C66.4873 97.3438 60.808 96.3053 59.5355 93.4318C58.4689 91.0232 54.1669 89.7993 50.5457 90.8747C46.2252 92.1574 41.2457 90.1648 41.3248 87.1842C41.391 84.6867 37.8168 82.7574 33.8557 83.1538C29.13 83.6271 25.2538 80.841 26.6779 77.9953C27.8715 75.6101 25.3145 73.1324 21.3347 72.8176C16.5865 72.4421 14.1276 69.0891 16.7814 66.6085C19.0057 64.5293 17.6733 61.7034 13.997 60.7032C9.61103 59.5098 8.76866 55.8612 12.4371 53.9467C15.512 52.342 15.512 49.3968 12.4371 47.7921C8.76866 45.8775 9.61103 42.2289 13.997 41.0356C17.6733 40.0354 19.0057 37.2094 16.7814 35.1303C14.1276 32.6496 16.5865 29.2966 21.3347 28.9211C25.3145 28.6064 27.8715 26.1288 26.6779 23.7435C25.2538 20.8978 29.13 18.1119 33.8557 18.5848C37.8168 18.9811 41.391 17.0524 41.3248 14.5544C41.2457 11.574 46.2252 9.58115 50.5457 10.864C54.1669 11.9392 58.4689 10.7157 59.5355 8.30723C60.808 5.43379 66.4873 4.39528 70.0524 6.38415C73.0406 8.05115 77.7218 7.63198 79.8347 5.50826Z" fill="white"/>
</svg>
